# xmcd
#
# Track frame offsets:
# 150
# 12570
# 27648
# 42143
# 59098
# 75503
# 91828
# 108544
# 118662
# 135823
# 150147
# 171144
# 185811
# 201162
# 216101
# 233732
#
# Disc length: 3378 seconds
#
#
# Revision: 0
# Processed by: cddbd v1.5.1PL2 Copyright (c) Steve Scherf et al.
# Submitted via: FreeRIP 2.944 
#
DISCID=d10d3010
DTITLE=Gian e Giovane - O melhor de
DYEAR=1999
DGENRE=Sertanejo
TTITLE0=Espuma da Cerveja
TTITLE1=Você em minha vida
TTITLE2=Amante anônimo
TTITLE3=Suz vez
TTITLE4=Caçador de corações
TTITLE5=Roupa de lua de mel
TTITLE6=Mil corações
TTITLE7=O grande amor da minha vida
TTITLE8=Por telefone
TTITLE9=As mesmas coisas
TTITLE10=Eu busco uma estrela
TTITLE11=Viola caipira
TTITLE12=Pra te ver rebolar
TTITLE13=Olha amor
TTITLE14=Escravo do amor
TTITLE15=Nem dormindo consigo te esquecer
EXTD=
EXTT0=
EXTT1=
EXTT2=
EXTT3=
EXTT4=
EXTT5=
EXTT6=
EXTT7=
EXTT8=
EXTT9=
EXTT10=
EXTT11=
EXTT12=
EXTT13=
EXTT14=
EXTT15=
PLAYORDER=
